# xmcd
#
# Track frame offsets:
#	182
#	16172
#	29620
#	46230
#	60390
#	77302
#	86052
#	98267
#	110615
#	124127
#	142805
#	153447
#	169765
#	183682
#
# Disc length: 2627 seconds
#
# Revision: 1
# Processed by: cddbd v1.5.1PL0 Copyright (c) Steve Scherf et al.
# Submitted via: audiograbber 1.83.01
#
DISCID=a40a410e
DTITLE=Les amis des enfants du monde - Surles ailes d'une colombe
DYEAR=1900
DGENRE=
TTITLE0=Amis des enfants du monde
TTITLE1=J'te dis merci la vie
TTITLE2=Téléphone-moi
TTITLE3=Un coeur
TTITLE4=Je n'ai plus que mes yeux
TTITLE5=Viens
TTITLE6=Un monde
TTITLE7=Sur les ailes d'une colombe
TTITLE8=Libre
TTITLE9=Frère, mon petit frère
TTITLE10=Donnez-nous une pluie d'étoiles
TTITLE11=Encore combien de temps
TTITLE12=Aujourd'hui bâtit l'avenir
TTITLE13=Un jour de fête, un jour de vie
EXTD=
EXTT0=
EXTT1=
EXTT2=
EXTT3=
EXTT4=
EXTT5=
EXTT6=
EXTT7=
EXTT8=
EXTT9=
EXTT10=
EXTT11=
EXTT12=
EXTT13=
PLAYORDER=
